<?xml version="1.0" encoding="utf-8"?>
<!-- Generator: Adobe Illustrator 27.5.0, SVG Export Plug-In . SVG Version: 6.00 Build 0)  -->
<svg version="1.1" xmlns="http://www.w3.org/2000/svg" xmlns:xlink="http://www.w3.org/1999/xlink" x="0px" y="0px"
	 viewBox="0 0 2200 2200" style="enable-background:new 0 0 2200 2200;" xml:space="preserve">
<g id="background">
	<rect y="0" style="fill:#FFFFFF;" width="2200" height="2200"/>
</g>
<g id="Objects">
	<g>
		<path style="fill:#FF7145;" d="M1939.748,1303.227H880.716c-63.38,0-102.259-69.447-69.127-123.478l529.516-863.519
			c31.641-51.599,106.613-51.599,138.254,0l529.516,863.519C2042.007,1233.779,2003.128,1303.227,1939.748,1303.227z"/>
		<circle style="fill:#FFFFFF;" cx="1410.232" cy="1061.05" r="81.741"/>
		<path style="fill:#FFFFFF;" d="M1459.978,523.862h-99.493c-13.971,0-24.924,12.001-23.651,25.914l33.065,361.427
			c1.119,12.227,11.373,21.587,23.651,21.587h33.364c12.278,0,22.533-9.359,23.651-21.587l33.064-361.427
			C1484.902,535.863,1473.949,523.862,1459.978,523.862z"/>
		<path style="fill:#265060;" d="M541.867,1648.901l-221.392,254.233c-19.042,21.861-51.578,25.706-75.175,8.864
			c-9.36-6.681-19.596-15.098-30.138-25.648c-10.55-10.55-18.967-20.778-25.656-30.138c-16.843-23.606-12.99-56.133,8.864-75.175
			l254.242-221.392L541.867,1648.901z"/>
		<circle style="fill:#E9FDFF;" cx="890.657" cy="1210.852" r="345.096"/>
		
			<rect x="540.269" y="1468.578" transform="matrix(0.7071 -0.7071 0.7071 0.7071 -886.134 863.9864)" style="fill:#ACBBBF;" width="119.176" height="66.148"/>
		<path style="fill:#C1D6D5;" d="M602.722,1579.849l-39.845,45.757l-86.974-86.974l45.765-39.845
			c8.235-7.169,20.621-6.739,28.344,0.984l51.726,51.735C609.461,1559.228,609.899,1571.606,602.722,1579.849z"/>
		<path style="fill:#EDB294;" d="M1235.755,1210.856c0,31.99-4.35,62.97-12.5,92.37h-342.54c-63.38,0-102.26-69.45-69.13-123.48
			l182.81-298.12C1134.295,925.666,1235.755,1056.406,1235.755,1210.856z"/>
		<path style="fill:#2C5A68;" d="M1247.227,1066.091c-19.364-47.749-47.799-90.571-84.518-127.29
			c-36.711-36.719-79.541-65.154-127.29-84.51c-46.096-18.695-94.804-28.178-144.761-28.178c-49.949,0-98.657,9.484-144.761,28.178
			c-47.741,19.356-90.571,47.791-127.29,84.51c-36.711,36.72-65.146,79.541-84.51,127.29
			c-18.695,46.104-28.178,94.804-28.178,144.761s9.484,98.657,28.178,144.761c19.364,47.749,47.799,90.579,84.51,127.29
			c36.719,36.72,79.549,65.154,127.29,84.519c46.104,18.695,94.812,28.17,144.761,28.17c49.957,0,98.665-9.475,144.761-28.17
			c47.749-19.364,90.579-47.799,127.29-84.519c36.719-36.711,65.154-79.541,84.518-127.29c18.695-46.104,28.17-94.804,28.17-144.761
			S1265.922,1112.195,1247.227,1066.091z M1115.943,1436.13c-60.177,60.177-140.181,93.316-225.286,93.316
			c-85.097,0-165.101-33.139-225.278-93.316c-60.177-60.168-93.316-140.181-93.316-225.278c0-85.097,33.139-165.101,93.316-225.278
			c60.177-60.177,140.181-93.316,225.278-93.316c85.106,0,165.11,33.139,225.286,93.316
			c60.168,60.177,93.307,140.181,93.307,225.278C1209.251,1295.949,1176.112,1375.962,1115.943,1436.13z"/>
		<path style="fill:#224356;" d="M890.657,1544.446c-89.106,0-172.879-34.7-235.887-97.707
			c-63.007-63.008-97.707-146.78-97.707-235.887s34.7-172.879,97.707-235.886c63.008-63.008,146.78-97.708,235.887-97.708
			s172.879,34.7,235.887,97.708c63.007,63.007,97.707,146.78,97.707,235.886s-34.7,172.879-97.707,235.887
			C1063.536,1509.746,979.763,1544.446,890.657,1544.446z M890.657,907.258c-81.093,0-157.332,31.579-214.673,88.92
			c-57.342,57.341-88.921,133.581-88.921,214.673s31.579,157.332,88.921,214.673c57.341,57.342,133.58,88.921,214.673,88.921
			s157.332-31.579,214.674-88.921c57.341-57.341,88.92-133.58,88.92-214.673s-31.579-157.332-88.92-214.673
			C1047.989,938.838,971.75,907.258,890.657,907.258z"/>
	</g>
</g>
</svg>
